# xmcd CD database file
#
# Track frame offsets:
#	150
#	19942
#	43582
#	67132
#	88767
#	105775
#	124330
#	136297
#	161720
#	185145
#
# Disc length: 2680 seconds
#
# Revision: 0
# Processed by: cddbd v1.5PL3 Copyright (c) Steve Scherf et al.
# Submitted via: CDex 1.50beta10
#
DISCID=8c0a760a
DTITLE=田村 直美 - New Vintage
DYEAR=1900
DGENRE=Ballad
TTITLE0=In The Name Of Love
TTITLE1=愛について
TTITLE2=Callin You
TTITLE3=大地への祈り宇宙へのあこがれ
TTITLE4=Have I Loved You Well？
TTITLE5=The Story Of The Universe
TTITLE6=Break On Through
TTITLE7=My Funny Valentine
TTITLE8=Distant Lover
TTITLE9=Love and Peace
EXTD=
EXTT0=
EXTT1=
EXTT2=
EXTT3=
EXTT4=
EXTT5=
EXTT6=
EXTT7=
EXTT8=
EXTT9=
PLAYORDER=
